<svg width="16" height="16" viewBox="0 0 16 16" fill="none" xmlns="http://www.w3.org/2000/svg">
<g clip-path="url(#clip0_1717_2065)">
<path fill-rule="evenodd" clip-rule="evenodd" d="M0.640548 15.0181C0.275295 14.6528 0.275295 14.0606 0.640548 13.6954L14.0516 0.284347C14.4168 -0.0809059 15.009 -0.0809059 15.3743 0.284347C15.7395 0.649599 15.7395 1.24179 15.3743 1.60704L1.96324 15.0181C1.59799 15.3833 1.0058 15.3833 0.640548 15.0181Z" fill="#030B1A"/>
<path fill-rule="evenodd" clip-rule="evenodd" d="M14.7129 14.5244C14.1964 14.5244 13.7776 14.1057 13.7776 13.5891V1.88047H2.06896C1.55241 1.88047 1.13367 1.46172 1.13367 0.945179C1.13367 0.428635 1.55241 0.00989246 2.06896 0.00989246H14.7129C15.2295 0.00989246 15.6482 0.428635 15.6482 0.945179V13.5891C15.6482 14.1057 15.2295 14.5244 14.7129 14.5244Z" fill="#030B1A"/>
</g>
<defs>
<clipPath id="clip0_1717_2065">
<rect width="16" height="16" fill="white"/>
</clipPath>
</defs>
</svg>
