<svg width="33" height="33" viewBox="0 0 33 33" fill="none" xmlns="http://www.w3.org/2000/svg">
<path d="M8.35278 10.6151C8.35278 10.1083 8.53076 9.69021 8.8867 9.36081C9.24265 9.0314 9.70539 8.8667 10.2749 8.8667C10.8342 8.8667 11.2868 9.02886 11.6326 9.35321C11.9885 9.68769 12.1665 10.1235 12.1665 10.6607C12.1665 11.1472 11.9936 11.5526 11.6478 11.877C11.2919 12.2115 10.8241 12.3787 10.2444 12.3787H10.2291C9.66978 12.3787 9.21723 12.2115 8.87145 11.877C8.52567 11.5425 8.35278 11.1219 8.35278 10.6151ZM8.5511 23.9182V13.7622H11.9377V23.9182H8.5511ZM13.814 23.9182H17.2006V18.2473C17.2006 17.8925 17.2413 17.6188 17.3226 17.4263C17.465 17.0817 17.6811 16.7902 17.971 16.5521C18.2608 16.3139 18.6244 16.1948 19.0617 16.1948C20.2007 16.1948 20.7702 16.96 20.7702 18.4905V23.9182H24.1568V18.0952C24.1568 16.5951 23.8009 15.4574 23.089 14.682C22.3771 13.9067 21.4364 13.519 20.2668 13.519C18.9549 13.519 17.9328 14.0815 17.2006 15.2066V15.237H17.1854L17.2006 15.2066V13.7622H13.814C13.8344 14.0866 13.8445 15.0951 13.8445 16.7877C13.8445 18.4804 13.8344 20.8572 13.814 23.9182Z" fill="white"/>
</svg>
