<svg width="32" height="33" viewBox="0 0 32 33" fill="none" xmlns="http://www.w3.org/2000/svg">
<path d="M18.5847 9.98429V9.98145H19.3257L19.5965 10.0355C19.777 10.0706 19.9409 10.1166 20.0881 10.1736C20.2354 10.2305 20.3779 10.2969 20.5157 10.3728C20.6534 10.4487 20.7784 10.526 20.8905 10.6048C21.0016 10.6826 21.1014 10.7651 21.1897 10.8524C21.2771 10.9406 21.4135 10.9634 21.5987 10.9207C21.784 10.878 21.9835 10.8187 22.1972 10.7428C22.411 10.6669 22.6224 10.5815 22.8314 10.4866C23.0404 10.3918 23.1677 10.3315 23.2133 10.3059C23.258 10.2794 23.2817 10.2651 23.2846 10.2632L23.2874 10.259L23.3017 10.2518L23.3159 10.2447L23.3302 10.2376L23.3444 10.2305L23.3473 10.2262L23.3515 10.2234L23.3558 10.2205L23.3587 10.2163L23.3729 10.212L23.3872 10.2091L23.3843 10.2305L23.3801 10.2518L23.3729 10.2732L23.3658 10.2945L23.3587 10.3088L23.3515 10.323L23.3444 10.3443C23.3397 10.3586 23.3349 10.3775 23.3302 10.4013C23.3254 10.425 23.2803 10.5198 23.1948 10.6859C23.1093 10.8519 23.0024 11.0203 22.8742 11.1911C22.7459 11.3619 22.6309 11.4909 22.5293 11.5782C22.4267 11.6664 22.3588 11.7281 22.3255 11.7632C22.2923 11.7992 22.2519 11.8324 22.2044 11.8628L22.1331 11.9097L22.1189 11.9169L22.1046 11.924L22.1018 11.9282L22.0975 11.9311L22.0932 11.9339L22.0904 11.9382L22.0761 11.9453L22.0619 11.9524L22.059 11.9567L22.0547 11.9596L22.0505 11.9624L22.0476 11.9667L22.0448 11.9709L22.0405 11.9738L22.0362 11.9766L22.0334 11.9809H22.1046L22.5036 11.8955C22.7697 11.8386 23.0238 11.7698 23.266 11.6892L23.6508 11.5611L23.6936 11.5469L23.7149 11.5397L23.7292 11.5326L23.7434 11.5255L23.7577 11.5184L23.7719 11.5113L23.8004 11.507L23.8289 11.5042V11.5326L23.8218 11.5355L23.8147 11.5397L23.8119 11.544L23.8076 11.5469L23.8033 11.5497L23.8004 11.554L23.7976 11.5582L23.7933 11.5611L23.789 11.5639L23.7862 11.5682L23.7834 11.5725L23.7791 11.5753L23.7719 11.5896L23.7648 11.6038L23.7605 11.6066C23.7586 11.6095 23.6983 11.6901 23.5796 11.8486C23.4608 12.0079 23.3967 12.0886 23.3872 12.0905C23.3777 12.0933 23.3644 12.1076 23.3473 12.1332C23.3311 12.1597 23.2304 12.2655 23.0452 12.4505C22.8599 12.6355 22.6785 12.8001 22.5008 12.9443C22.3222 13.0895 22.2319 13.2679 22.23 13.4794C22.2272 13.6901 22.2163 13.9282 22.1972 14.1938C22.1782 14.4595 22.1426 14.7465 22.0904 15.0548C22.0381 15.3631 21.9574 15.7118 21.8481 16.1008C21.7389 16.4898 21.6058 16.8693 21.4491 17.2393C21.2923 17.6093 21.1284 17.9413 20.9574 18.2354C20.7864 18.5296 20.6297 18.7786 20.4872 18.9826C20.3446 19.1865 20.1998 19.3787 20.0525 19.5589C19.9053 19.7392 19.7191 19.9422 19.4939 20.168C19.2678 20.3929 19.1443 20.5162 19.1234 20.538C19.1015 20.5589 19.0084 20.6367 18.844 20.7714C18.6806 20.9071 18.5049 21.0427 18.3168 21.1784C18.1296 21.3131 17.9577 21.4256 17.8009 21.5157C17.6441 21.6058 17.4551 21.7087 17.2337 21.8245C17.0133 21.9412 16.7748 22.0494 16.5183 22.149C16.2618 22.2486 15.9911 22.3411 15.706 22.4265C15.421 22.5119 15.1455 22.5783 14.8795 22.6257C14.6135 22.6731 14.3118 22.7135 13.9746 22.7467L13.4687 22.7965V22.8036H12.5424V22.7965L12.4212 22.7894C12.3405 22.7846 12.274 22.7799 12.2217 22.7751C12.1695 22.7704 11.9724 22.7443 11.6303 22.6969C11.2883 22.6494 11.0199 22.602 10.8252 22.5546C10.6304 22.5071 10.3406 22.417 9.95587 22.2842C9.57111 22.1513 9.24191 22.0171 8.9683 21.8814C8.69564 21.7467 8.52463 21.6613 8.45527 21.6253C8.38687 21.5902 8.30992 21.5465 8.22441 21.4943L8.09616 21.4161L8.09332 21.4118L8.08903 21.409L8.08476 21.4061L8.08191 21.4018L8.06765 21.3947L8.0534 21.3876L8.05057 21.3833L8.04628 21.3805L8.042 21.3776L8.03915 21.3734L8.03632 21.3691L8.03203 21.3663H8.0249V21.3378L8.03915 21.3406L8.0534 21.3449L8.11753 21.352C8.16028 21.3568 8.27667 21.3639 8.46667 21.3734C8.65669 21.3829 8.85857 21.3829 9.07233 21.3734C9.28609 21.3639 9.50461 21.3425 9.72786 21.3093C9.95113 21.2761 10.2148 21.2192 10.5188 21.1386C10.8228 21.0579 11.1021 20.9621 11.3567 20.8511C11.6104 20.7392 11.7909 20.6557 11.8983 20.6006C12.0047 20.5466 12.1671 20.446 12.3856 20.2989L12.7134 20.0784L12.7162 20.0741L12.7205 20.0712L12.7248 20.0684L12.7276 20.0641L12.7305 20.0599L12.7348 20.057L12.7391 20.0542L12.7419 20.0499L12.7561 20.0456L12.7704 20.0428L12.7732 20.0285L12.7775 20.0143L12.7818 20.0115L12.7846 20.0072L12.6706 20.0001C12.5946 19.9953 12.521 19.9906 12.4498 19.9859C12.3785 19.9811 12.2669 19.9598 12.1149 19.9218C11.9629 19.8839 11.799 19.8269 11.6232 19.751C11.4475 19.6751 11.2764 19.585 11.1102 19.4807C10.9439 19.3763 10.8237 19.2895 10.7496 19.2202C10.6765 19.1519 10.5815 19.0551 10.4646 18.9299C10.3487 18.8037 10.248 18.6742 10.1625 18.5414C10.077 18.4086 9.99531 18.2553 9.91741 18.0817L9.79912 17.8227L9.79199 17.8014L9.78487 17.78L9.78059 17.7658L9.77774 17.7516L9.79912 17.7544L9.82049 17.7587L9.97725 17.78C10.0818 17.7943 10.2456 17.799 10.4689 17.7943C10.6922 17.7895 10.8465 17.78 10.932 17.7658C11.0176 17.7516 11.0698 17.7421 11.0888 17.7374L11.1173 17.7302L11.1529 17.7231L11.1886 17.716L11.1914 17.7117L11.1957 17.7089L11.2 17.706L11.2028 17.7018L11.1743 17.6947L11.1458 17.6875L11.1173 17.6804L11.0888 17.6733L11.0603 17.6662C11.0413 17.6615 11.0081 17.652 10.9606 17.6377C10.9131 17.6235 10.7848 17.5713 10.5758 17.4812C10.3668 17.3911 10.2005 17.3033 10.077 17.2179C9.95319 17.1323 9.83513 17.0386 9.72359 16.9376C9.61243 16.8351 9.49036 16.7032 9.35734 16.5419C9.22434 16.3807 9.10559 16.1933 9.00108 15.9798C8.89658 15.7664 8.8182 15.5624 8.76594 15.3679C8.71389 15.1745 8.67955 14.9769 8.66335 14.7773L8.63768 14.4784L8.65193 14.4813L8.66618 14.4856L8.68044 14.4927L8.69469 14.4998L8.70894 14.5069L8.72319 14.514L8.94407 14.6136C9.09134 14.6801 9.27422 14.737 9.49273 14.7844C9.71125 14.8318 9.84187 14.8579 9.88462 14.8627L9.94875 14.8698H10.077L10.0742 14.8655L10.0699 14.8627L10.0656 14.8598L10.0628 14.8556L10.0599 14.8513L10.0556 14.8485L10.0514 14.8456L10.0485 14.8413L10.0343 14.8342L10.02 14.8271L10.0172 14.8228L10.0129 14.82L10.0086 14.8171L10.0058 14.8129L9.9915 14.8058L9.97725 14.7986L9.97441 14.7944C9.97156 14.7925 9.93071 14.7621 9.85184 14.7033C9.77394 14.6435 9.69224 14.5662 9.60673 14.4713C9.52123 14.3765 9.43572 14.2768 9.35022 14.1725C9.26456 14.0679 9.18826 13.956 9.12221 13.8381C9.05571 13.7195 8.9854 13.5686 8.9113 13.3855C8.83815 13.2033 8.78257 13.0198 8.74456 12.8348C8.70657 12.6498 8.6852 12.4671 8.68044 12.2869C8.67569 12.1066 8.68044 11.9524 8.69469 11.8244C8.70894 11.6963 8.73744 11.5516 8.78019 11.3903C8.82294 11.229 8.88471 11.0583 8.96545 10.878L9.08658 10.6076L9.09371 10.5863L9.10083 10.5649L9.10512 10.5621L9.10796 10.5578L9.11081 10.5535L9.11508 10.5507L9.11937 10.5535L9.12221 10.5578L9.12506 10.5621L9.12933 10.5649L9.13362 10.5678L9.13646 10.572L9.13931 10.5763L9.14358 10.5791L9.15071 10.5934L9.15783 10.6076L9.16212 10.6105L9.16496 10.6147L9.35734 10.8282C9.4856 10.9705 9.63761 11.1294 9.81337 11.3049C9.98914 11.4804 10.0865 11.5715 10.1055 11.5782C10.1245 11.5858 10.1483 11.6076 10.1768 11.6436C10.2053 11.6787 10.3003 11.7627 10.4618 11.8955C10.6233 12.0283 10.8347 12.1825 11.0959 12.358C11.3572 12.5335 11.647 12.7067 11.9652 12.8775C12.2835 13.0482 12.6255 13.2024 12.9913 13.34C13.3571 13.4775 13.6136 13.5677 13.7608 13.6104C13.9081 13.653 14.1598 13.7076 14.5161 13.774C14.8724 13.8404 15.1408 13.8831 15.3213 13.9021C15.5018 13.9211 15.6253 13.932 15.6918 13.9348L15.7915 13.9377L15.7887 13.9163L15.7844 13.895L15.7559 13.7171C15.7369 13.5985 15.7274 13.4325 15.7274 13.219C15.7274 13.0055 15.744 12.8087 15.7773 12.6284C15.8106 12.4482 15.8604 12.2655 15.9269 12.0805C15.9934 11.8955 16.0585 11.747 16.1222 11.6351C16.1868 11.5241 16.2713 11.3974 16.3758 11.2551C16.4803 11.1128 16.6157 10.9658 16.782 10.814C16.9482 10.6622 17.1382 10.527 17.352 10.4084C17.5658 10.2898 17.7629 10.1996 17.9434 10.138C18.1239 10.0763 18.2759 10.036 18.3994 10.017C18.5229 9.99805 18.5847 9.98714 18.5847 9.98429V9.98429Z" fill="white"/>
</svg>
