<svg width="32" height="33" viewBox="0 0 32 33" fill="none" xmlns="http://www.w3.org/2000/svg">
<path d="M16.3037 22.5205L12.7371 22.4538C11.5823 22.4306 10.4246 22.4769 9.29247 22.2363C7.57021 21.8768 7.4482 20.1138 7.32052 18.635C7.14461 16.5561 7.21271 14.4394 7.54469 12.3777C7.7321 11.221 8.46966 10.5307 9.61025 10.4556C13.4606 10.183 17.3366 10.2153 21.1784 10.3425C21.5841 10.3541 21.9926 10.4179 22.3927 10.4904C24.3676 10.8442 24.4158 12.842 24.5438 14.5237C24.6715 16.2229 24.6176 17.9307 24.3736 19.6183C24.1778 21.0155 23.8032 22.1873 22.2225 22.3004C20.2419 22.4483 18.3068 22.5674 16.3207 22.5295C16.3208 22.5205 16.3093 22.5205 16.3037 22.5205ZM14.2069 18.983C15.6994 18.1073 17.1634 17.2462 18.6474 16.3763C17.1521 15.5006 15.6908 14.6394 14.2069 13.7696V18.983Z" fill="white"/>
</svg>
